<svg xmlns="http://www.w3.org/2000/svg" viewBox="0 0 200 150">
  <rect fill="#1a1a2e" width="200" height="150"/>
  <rect x="30" y="40" width="8" height="8" fill="#6366F1" opacity="0.8"/>
  <rect x="45" y="35" width="8" height="8" fill="#818CF8" opacity="0.8"/>
  <rect x="60" y="42" width="8" height="8" fill="#6366F1" opacity="0.8"/>
  <rect x="75" y="38" width="8" height="8" fill="#22D3EE" opacity="0.8"/>
  <rect x="90" y="45" width="8" height="8" fill="#6366F1" opacity="0.8"/>
  <rect x="105" y="40" width="8" height="8" fill="#818CF8" opacity="0.8"/>
  <rect x="120" y="43" width="8" height="8" fill="#6366F1" opacity="0.8"/>
  <rect x="135" y="37" width="8" height="8" fill="#22D3EE" opacity="0.8"/>
  <rect x="150" y="41" width="8" height="8" fill="#6366F1" opacity="0.8"/>
  <rect x="35" y="60" width="8" height="8" fill="#818CF8" opacity="0.6"/>
  <rect x="50" y="55" width="8" height="8" fill="#6366F1" opacity="0.6"/>
  <rect x="65" y="62" width="8" height="8" fill="#22D3EE" opacity="0.6"/>
  <rect x="80" y="58" width="8" height="8" fill="#6366F1" opacity="0.6"/>
  <rect x="95" y="65" width="8" height="8" fill="#818CF8" opacity="0.6"/>
  <rect x="110" y="60" width="8" height="8" fill="#6366F1" opacity="0.6"/>
  <rect x="125" y="63" width="8" height="8" fill="#22D3EE" opacity="0.6"/>
  <rect x="140" y="57" width="8" height="8" fill="#6366F1" opacity="0.6"/>
  <text x="100" y="100" fill="#888" font-size="10" text-anchor="middle" font-family="monospace">× 10,000</text>
</svg>