<svg xmlns="http://www.w3.org/2000/svg" viewBox="0 0 200 150">
  <rect fill="#1a1a2e" width="200" height="150"/>
  <rect x="20" y="40" width="60" height="25" rx="4" fill="#6366F1" opacity="0.8"/>
  <text x="50" y="56" fill="#fff" font-size="7" text-anchor="middle" font-family="monospace">Buffer A</text>
  <line x1="80" y1="52" x2="100" y2="52" stroke="#888" stroke-width="1"/>
  <rect x="100" y="40" width="30" height="25" rx="4" fill="#22D3EE" opacity="0.8"/>
  <text x="115" y="56" fill="#fff" font-size="7" text-anchor="middle" font-family="monospace">TF</text>
  <line x1="130" y1="52" x2="150" y2="52" stroke="#888" stroke-width="1"/>
  <rect x="150" y="40" width="30" height="25" rx="4" fill="#FF6B6B" opacity="0.8"/>
  <text x="165" y="56" fill="#fff" font-size="7" text-anchor="middle" font-family="monospace">B</text>
  <path d="M165,65 L165,80 L50,80 L50,65" fill="none" stroke="#888" stroke-width="1" stroke-dasharray="3"/>
  <polygon points="47,67 50,60 53,67" fill="#888"/>
  <circle cx="60" cy="110" r="3" fill="#6366F1"/>
  <circle cx="80" cy="115" r="3" fill="#6366F1"/>
  <circle cx="100" cy="105" r="3" fill="#6366F1"/>
  <circle cx="120" cy="118" r="3" fill="#6366F1"/>
  <circle cx="140" cy="108" r="3" fill="#6366F1"/>
</svg>